<svg width="45" height="41" viewBox="0 0 45 41" fill="none" xmlns="http://www.w3.org/2000/svg">
<path d="M3.66862 26.242L4.59662 22.778H1.34062L1.63662 21.65H4.90062L5.58062 19.082H2.32462L2.62862 17.954H5.89262L6.74862 14.73H7.92462L7.05262 17.954H9.73262L10.5886 14.73H11.7646L10.8926 17.954H14.1486L13.8446 19.082H10.5966L9.90062 21.65H13.1566L12.8526 22.778H9.60462L8.67662 26.242H7.50862L8.42862 22.778H5.76462L4.83662 26.242H3.66862ZM6.06862 21.65H8.74062L9.42062 19.082H6.75662L6.06862 21.65ZM19.747 26.49C19.027 26.49 18.3897 26.346 17.835 26.058C17.2857 25.77 16.8537 25.3673 16.539 24.85C16.2297 24.3273 16.075 23.7167 16.075 23.018C16.075 22.3033 16.2483 21.6687 16.595 21.114C16.9417 20.554 17.4697 20.13 18.179 19.842L18.163 20.306C17.571 20.0873 17.1203 19.73 16.811 19.234C16.5017 18.738 16.347 18.1887 16.347 17.586C16.347 16.946 16.4937 16.3967 16.787 15.938C17.0803 15.474 17.4803 15.1167 17.987 14.866C18.499 14.6153 19.0857 14.49 19.747 14.49C20.4083 14.49 20.995 14.6153 21.507 14.866C22.019 15.1167 22.4217 15.474 22.715 15.938C23.0083 16.3967 23.155 16.946 23.155 17.586C23.155 18.1887 23.0057 18.7353 22.707 19.226C22.4137 19.7167 21.963 20.0767 21.355 20.306L21.315 19.842C22.0243 20.1247 22.555 20.546 22.907 21.106C23.2643 21.666 23.443 22.3033 23.443 23.018C23.443 23.7167 23.2857 24.3273 22.971 24.85C22.6563 25.3673 22.2217 25.77 21.667 26.058C21.1123 26.346 20.4723 26.49 19.747 26.49ZM19.747 25.362C20.4723 25.362 21.0617 25.162 21.515 24.762C21.9683 24.3567 22.195 23.7753 22.195 23.018C22.195 22.25 21.971 21.6687 21.523 21.274C21.075 20.874 20.483 20.674 19.747 20.674C19.011 20.674 18.4217 20.874 17.979 21.274C17.5363 21.6687 17.315 22.25 17.315 23.018C17.315 23.7753 17.539 24.3567 17.987 24.762C18.435 25.162 19.0217 25.362 19.747 25.362ZM19.747 19.538C20.387 19.538 20.907 19.3753 21.307 19.05C21.707 18.7193 21.907 18.2313 21.907 17.586C21.907 16.9407 21.707 16.458 21.307 16.138C20.907 15.8127 20.387 15.65 19.747 15.65C19.107 15.65 18.587 15.8127 18.187 16.138C17.7923 16.458 17.595 16.9407 17.595 17.586C17.595 18.2313 17.7923 18.7193 18.187 19.05C18.587 19.3753 19.107 19.538 19.747 19.538Z" fill="white"/>
</svg>
