<svg width="142" height="41" viewBox="0 0 142 41" fill="none" xmlns="http://www.w3.org/2000/svg">
<path d="M3.75675 26.242L4.68475 22.778H1.42875L1.72475 21.65H4.98875L5.66875 19.082H2.41275L2.71675 17.954H5.98075L6.83675 14.73H8.01275L7.14075 17.954H9.82075L10.6768 14.73H11.8528L10.9808 17.954H14.2368L13.9328 19.082H10.6848L9.98875 21.65H13.2448L12.9408 22.778H9.69275L8.76475 26.242H7.59675L8.51675 22.778H5.85275L4.92475 26.242H3.75675ZM6.15675 21.65H8.82875L9.50875 19.082H6.84475L6.15675 21.65ZM16.0031 26.242L16.0111 25.17L21.2191 20.466C21.6671 20.0607 21.9631 19.6767 22.1071 19.314C22.2565 18.946 22.3311 18.562 22.3311 18.162C22.3311 17.6873 22.2191 17.258 21.9951 16.874C21.7711 16.49 21.4698 16.186 21.0911 15.962C20.7125 15.7327 20.2885 15.618 19.8191 15.618C19.3285 15.618 18.8911 15.7353 18.5071 15.97C18.1231 16.2047 17.8191 16.514 17.5951 16.898C17.3765 17.282 17.2698 17.7007 17.2751 18.154H16.0751C16.0751 17.4553 16.2405 16.8287 16.5711 16.274C16.9018 15.7193 17.3498 15.2847 17.9151 14.97C18.4805 14.65 19.1205 14.49 19.8351 14.49C20.5338 14.49 21.1605 14.6553 21.7151 14.986C22.2751 15.3113 22.7151 15.754 23.0351 16.314C23.3605 16.8687 23.5231 17.4873 23.5231 18.17C23.5231 18.65 23.4645 19.074 23.3471 19.442C23.2351 19.8047 23.0565 20.1433 22.8111 20.458C22.5711 20.7673 22.2645 21.0873 21.8911 21.418L17.2671 25.594L17.0831 25.114H23.5231V26.242H16.0031Z" fill="white"/>
<path d="M41.5653 26.49C40.76 26.49 40.0346 26.3567 39.3893 26.09C38.7493 25.818 38.2186 25.434 37.7973 24.938C37.3813 24.442 37.1093 23.8527 36.9813 23.17L38.1813 22.97C38.3733 23.7167 38.7786 24.3033 39.3973 24.73C40.016 25.1513 40.7546 25.362 41.6133 25.362C42.1786 25.362 42.6853 25.274 43.1333 25.098C43.5813 24.9167 43.9333 24.6607 44.1893 24.33C44.4453 23.9993 44.5733 23.6073 44.5733 23.154C44.5733 22.8553 44.52 22.602 44.4133 22.394C44.3066 22.1807 44.1653 22.0047 43.9893 21.866C43.8133 21.7273 43.6213 21.6127 43.4133 21.522C43.2053 21.426 43.0026 21.3487 42.8053 21.29L39.8853 20.418C39.5333 20.3167 39.208 20.1887 38.9093 20.034C38.6106 19.874 38.3493 19.6847 38.1253 19.466C37.9066 19.242 37.736 18.9807 37.6133 18.682C37.4906 18.3833 37.4293 18.042 37.4293 17.658C37.4293 17.0073 37.6 16.4447 37.9413 15.97C38.2826 15.4953 38.7493 15.13 39.3413 14.874C39.9333 14.618 40.608 14.4927 41.3653 14.498C42.1333 14.498 42.8186 14.634 43.4213 14.906C44.0293 15.178 44.5306 15.5673 44.9253 16.074C45.32 16.5753 45.5813 17.17 45.7093 17.858L44.4773 18.082C44.3973 17.5807 44.2133 17.146 43.9253 16.778C43.6373 16.41 43.2693 16.1273 42.8213 15.93C42.3786 15.7273 41.8906 15.6233 41.3573 15.618C40.84 15.618 40.3786 15.706 39.9733 15.882C39.5733 16.0527 39.256 16.2873 39.0213 16.586C38.7866 16.8847 38.6693 17.226 38.6693 17.61C38.6693 17.9993 38.776 18.3113 38.9893 18.546C39.208 18.7807 39.4746 18.9647 39.7893 19.098C40.1093 19.2313 40.4186 19.3407 40.7173 19.426L42.9733 20.09C43.208 20.154 43.4826 20.2473 43.7973 20.37C44.1173 20.4873 44.4266 20.658 44.7253 20.882C45.0293 21.1007 45.28 21.3887 45.4773 21.746C45.6746 22.1033 45.7733 22.5567 45.7733 23.106C45.7733 23.6393 45.6666 24.1167 45.4533 24.538C45.2453 24.9593 44.9493 25.314 44.5653 25.602C44.1866 25.89 43.7413 26.1087 43.2293 26.258C42.7226 26.4127 42.168 26.49 41.5653 26.49ZM51.0327 26.49C50.174 26.49 49.4407 26.2953 48.8327 25.906C48.2247 25.5167 47.758 24.978 47.4327 24.29C47.1074 23.602 46.9447 22.8127 46.9447 21.922C46.9447 21.0153 47.11 20.2207 47.4407 19.538C47.7714 18.8553 48.2407 18.3247 48.8487 17.946C49.462 17.562 50.19 17.37 51.0327 17.37C51.8967 17.37 52.6327 17.5647 53.2407 17.954C53.854 18.338 54.3207 18.874 54.6407 19.562C54.966 20.2447 55.1287 21.0313 55.1287 21.922C55.1287 22.8287 54.966 23.626 54.6407 24.314C54.3154 24.9967 53.846 25.53 53.2327 25.914C52.6194 26.298 51.886 26.49 51.0327 26.49ZM51.0327 25.362C51.9927 25.362 52.7074 25.0447 53.1767 24.41C53.646 23.77 53.8807 22.9407 53.8807 21.922C53.8807 20.8767 53.6434 20.0447 53.1687 19.426C52.6994 18.8073 51.9874 18.498 51.0327 18.498C50.3874 18.498 49.854 18.6447 49.4327 18.938C49.0167 19.226 48.7047 19.6287 48.4967 20.146C48.294 20.658 48.1927 21.25 48.1927 21.922C48.1927 22.962 48.4327 23.7967 48.9127 24.426C49.3927 25.05 50.0994 25.362 51.0327 25.362ZM63.1334 26.25V21.842C63.1334 21.362 63.0881 20.922 62.9974 20.522C62.9068 20.1167 62.7601 19.7647 62.5574 19.466C62.3601 19.162 62.1014 18.9273 61.7814 18.762C61.4668 18.5967 61.0828 18.514 60.6294 18.514C60.2134 18.514 59.8454 18.586 59.5254 18.73C59.2108 18.874 58.9441 19.082 58.7254 19.354C58.5121 19.6207 58.3494 19.946 58.2374 20.33C58.1254 20.714 58.0694 21.1513 58.0694 21.642L57.2374 21.458C57.2374 20.5727 57.3921 19.8287 57.7014 19.226C58.0108 18.6233 58.4374 18.1673 58.9814 17.858C59.5254 17.5487 60.1494 17.394 60.8534 17.394C61.3708 17.394 61.8214 17.474 62.2054 17.634C62.5948 17.794 62.9228 18.01 63.1894 18.282C63.4614 18.554 63.6801 18.866 63.8454 19.218C64.0108 19.5647 64.1308 19.9353 64.2054 20.33C64.2801 20.7193 64.3174 21.1087 64.3174 21.498V26.25H63.1334ZM56.8854 26.25V17.61H57.9494V19.738H58.0694V26.25H56.8854ZM66.5534 15.97V14.65H67.7294V15.97H66.5534ZM66.5534 26.25V17.61H67.7294V26.25H66.5534ZM73.7118 26.49C72.8425 26.49 72.1065 26.2953 71.5038 25.906C70.9011 25.5167 70.4425 24.9807 70.1278 24.298C69.8185 23.61 69.6585 22.8207 69.6478 21.93C69.6585 21.0233 69.8238 20.2287 70.1438 19.546C70.4638 18.858 70.9251 18.3247 71.5278 17.946C72.1305 17.562 72.8611 17.37 73.7198 17.37C74.5945 17.37 75.3545 17.5833 75.9998 18.01C76.6505 18.4367 77.0958 19.0207 77.3358 19.762L76.1838 20.13C75.9811 19.6127 75.6585 19.2127 75.2158 18.93C74.7785 18.642 74.2771 18.498 73.7118 18.498C73.0771 18.498 72.5518 18.6447 72.1358 18.938C71.7198 19.226 71.4105 19.6287 71.2078 20.146C71.0051 20.6633 70.9011 21.258 70.8958 21.93C70.9065 22.9647 71.1465 23.7967 71.6158 24.426C72.0851 25.05 72.7838 25.362 73.7118 25.362C74.2985 25.362 74.7971 25.2287 75.2078 24.962C75.6238 24.69 75.9385 24.2953 76.1518 23.778L77.3358 24.13C77.0158 24.898 76.5465 25.4847 75.9278 25.89C75.3091 26.29 74.5705 26.49 73.7118 26.49ZM78.0272 26.25L81.4032 21.882L78.0992 17.61H79.5072L82.0912 20.978L84.6512 17.61H86.0592L82.7552 21.882L86.1392 26.25H84.7232L82.0912 22.786L79.4432 26.25H78.0272ZM90.6487 26.482C89.6354 26.482 88.8007 26.2633 88.1447 25.826C87.494 25.3887 87.094 24.7807 86.9447 24.002L88.1447 23.802C88.2727 24.2927 88.5634 24.6847 89.0167 24.978C89.4754 25.266 90.0407 25.41 90.7127 25.41C91.3687 25.41 91.886 25.274 92.2647 25.002C92.6434 24.7247 92.8327 24.3487 92.8327 23.874C92.8327 23.6073 92.7714 23.3913 92.6487 23.226C92.5314 23.0553 92.2887 22.898 91.9207 22.754C91.5527 22.61 91.0034 22.4393 90.2727 22.242C89.4887 22.0287 88.8754 21.8153 88.4327 21.602C87.99 21.3887 87.6754 21.1433 87.4887 20.866C87.302 20.5833 87.2087 20.2393 87.2087 19.834C87.2087 19.3433 87.3474 18.914 87.6247 18.546C87.902 18.1727 88.286 17.8847 88.7767 17.682C89.2674 17.474 89.838 17.37 90.4887 17.37C91.1394 17.37 91.7207 17.4767 92.2327 17.69C92.75 17.898 93.166 18.1913 93.4807 18.57C93.7954 18.9487 93.982 19.3887 94.0407 19.89L92.8407 20.106C92.7607 19.5993 92.5074 19.1993 92.0807 18.906C91.6594 18.6073 91.1234 18.4527 90.4727 18.442C89.8594 18.426 89.3607 18.5433 88.9767 18.794C88.5927 19.0393 88.4007 19.3673 88.4007 19.778C88.4007 20.0073 88.47 20.2047 88.6087 20.37C88.7474 20.53 88.998 20.682 89.3607 20.826C89.7287 20.97 90.2514 21.1273 90.9287 21.298C91.7234 21.5007 92.3474 21.714 92.8007 21.938C93.254 22.162 93.5767 22.426 93.7687 22.73C93.9607 23.034 94.0567 23.41 94.0567 23.858C94.0567 24.674 93.7527 25.3167 93.1447 25.786C92.542 26.25 91.71 26.482 90.6487 26.482ZM97.3584 26.25L94.7184 17.602L95.8944 17.61L97.9424 24.322L99.9984 17.61H101.07L103.126 24.322L105.19 17.61H106.358L103.718 26.25H102.694L100.534 19.37L98.3824 26.25H97.3584ZM109.787 26.49C109.137 26.49 108.59 26.3727 108.147 26.138C107.71 25.9033 107.382 25.5913 107.163 25.202C106.945 24.8127 106.835 24.3887 106.835 23.93C106.835 23.4607 106.929 23.0607 107.115 22.73C107.307 22.394 107.566 22.1193 107.891 21.906C108.222 21.6927 108.603 21.53 109.035 21.418C109.473 21.3113 109.955 21.218 110.483 21.138C111.017 21.0527 111.537 20.9807 112.043 20.922C112.555 20.858 113.003 20.7967 113.387 20.738L112.971 20.994C112.987 20.1407 112.822 19.5087 112.475 19.098C112.129 18.6873 111.526 18.482 110.667 18.482C110.075 18.482 109.574 18.6153 109.163 18.882C108.758 19.1487 108.473 19.57 108.307 20.146L107.163 19.81C107.361 19.0367 107.758 18.4367 108.355 18.01C108.953 17.5833 109.729 17.37 110.683 17.37C111.473 17.37 112.142 17.5193 112.691 17.818C113.246 18.1113 113.638 18.538 113.867 19.098C113.974 19.3487 114.043 19.6287 114.075 19.938C114.107 20.2473 114.123 20.562 114.123 20.882V26.25H113.075V24.082L113.379 24.21C113.086 24.9513 112.63 25.5167 112.011 25.906C111.393 26.2953 110.651 26.49 109.787 26.49ZM109.923 25.474C110.473 25.474 110.953 25.3753 111.363 25.178C111.774 24.9807 112.105 24.7113 112.355 24.37C112.606 24.0233 112.769 23.634 112.843 23.202C112.907 22.9247 112.942 22.6207 112.947 22.29C112.953 21.954 112.955 21.7033 112.955 21.538L113.403 21.77C113.003 21.8233 112.569 21.8767 112.099 21.93C111.635 21.9833 111.177 22.0447 110.723 22.114C110.275 22.1833 109.87 22.266 109.507 22.362C109.262 22.4313 109.025 22.53 108.795 22.658C108.566 22.7807 108.377 22.946 108.227 23.154C108.083 23.362 108.011 23.6207 108.011 23.93C108.011 24.1807 108.073 24.4233 108.195 24.658C108.323 24.8927 108.526 25.0873 108.803 25.242C109.086 25.3967 109.459 25.474 109.923 25.474ZM120.086 26.49C119.291 26.49 118.619 26.29 118.07 25.89C117.521 25.4847 117.105 24.938 116.822 24.25C116.539 23.5567 116.398 22.7807 116.398 21.922C116.398 21.0473 116.539 20.2687 116.822 19.586C117.11 18.898 117.531 18.3567 118.086 17.962C118.641 17.5673 119.323 17.37 120.134 17.37C120.923 17.37 121.601 17.57 122.166 17.97C122.731 18.37 123.163 18.914 123.462 19.602C123.766 20.29 123.918 21.0633 123.918 21.922C123.918 22.786 123.766 23.562 123.462 24.25C123.158 24.938 122.721 25.4847 122.15 25.89C121.579 26.29 120.891 26.49 120.086 26.49ZM116.198 30.09V17.61H117.254V24.114H117.382V30.09H116.198ZM119.966 25.394C120.569 25.394 121.07 25.242 121.47 24.938C121.87 24.634 122.169 24.2207 122.366 23.698C122.569 23.17 122.67 22.578 122.67 21.922C122.67 21.2713 122.571 20.6847 122.374 20.162C122.177 19.6393 121.875 19.226 121.47 18.922C121.07 18.618 120.561 18.466 119.942 18.466C119.339 18.466 118.838 18.6127 118.438 18.906C118.043 19.1993 117.747 19.6073 117.55 20.13C117.353 20.6473 117.254 21.2447 117.254 21.922C117.254 22.5887 117.353 23.186 117.55 23.714C117.747 24.2367 118.046 24.6473 118.446 24.946C118.846 25.2447 119.353 25.394 119.966 25.394Z" fill="white"/>
<g clip-path="url(#clip0_0_544)">
<circle cx="135.717" cy="20.25" r="6.5" fill="url(#paint0_radial_0_544)"/>
<g filter="url(#filter0_f_0_544)">
<circle cx="141.133" cy="26.5333" r="5.85" fill="#FC8D5F"/>
</g>
<path d="M132.493 17.4333H133.741L135.535 19.5913L137.415 17.4333H138.681L136.176 20.3106L138.698 23.2833H137.45L135.509 20.9606L133.515 23.2833H132.25L134.867 20.2326L132.493 17.4333Z" fill="white"/>
</g>
<defs>
<filter id="filter0_f_0_544" x="132.64" y="18.04" width="16.9867" height="16.9867" filterUnits="userSpaceOnUse" color-interpolation-filters="sRGB">
<feFlood flood-opacity="0" result="BackgroundImageFix"/>
<feBlend mode="normal" in="SourceGraphic" in2="BackgroundImageFix" result="shape"/>
<feGaussianBlur stdDeviation="1.32167" result="effect1_foregroundBlur_0_544"/>
</filter>
<radialGradient id="paint0_radial_0_544" cx="0" cy="0" r="1" gradientUnits="userSpaceOnUse" gradientTransform="translate(131.383 15.9167) rotate(47.7927) scale(12.5779)">
<stop offset="0.334968" stop-color="#131F2B"/>
<stop offset="0.584179" stop-color="#27425F"/>
<stop offset="1" stop-color="#F68E37"/>
</radialGradient>
<clipPath id="clip0_0_544">
<rect x="129.217" y="13.75" width="12.5667" height="13" rx="6.28333" fill="white"/>
</clipPath>
</defs>
</svg>
