<svg width="149" height="52" viewBox="0 0 149 52" fill="none" xmlns="http://www.w3.org/2000/svg">
<rect x="1.5" y="1.5" width="146" height="49" rx="24.5" stroke="#00FF55" stroke-width="3"/>
<path d="M24.8056 32.24C23.9362 32.24 23.2002 32.0453 22.5976 31.656C21.9949 31.2667 21.5362 30.7307 21.2216 30.048C20.9122 29.36 20.7522 28.5707 20.7416 27.68C20.7522 26.7733 20.9176 25.9787 21.2376 25.296C21.5576 24.608 22.0189 24.0747 22.6216 23.696C23.2242 23.312 23.9549 23.12 24.8136 23.12C25.6882 23.12 26.4482 23.3333 27.0936 23.76C27.7442 24.1867 28.1896 24.7707 28.4296 25.512L27.2776 25.88C27.0749 25.3627 26.7522 24.9627 26.3096 24.68C25.8722 24.392 25.3709 24.248 24.8056 24.248C24.1709 24.248 23.6456 24.3947 23.2296 24.688C22.8136 24.976 22.5042 25.3787 22.3016 25.896C22.0989 26.4133 21.9949 27.008 21.9896 27.68C22.0002 28.7147 22.2402 29.5467 22.7096 30.176C23.1789 30.8 23.8776 31.112 24.8056 31.112C25.3922 31.112 25.8909 30.9787 26.3016 30.712C26.7176 30.44 27.0322 30.0453 27.2456 29.528L28.4296 29.88C28.1096 30.648 27.6402 31.2347 27.0216 31.64C26.4029 32.04 25.6642 32.24 24.8056 32.24ZM33.4546 32.24C32.5959 32.24 31.8626 32.0453 31.2546 31.656C30.6466 31.2667 30.1799 30.728 29.8546 30.04C29.5292 29.352 29.3666 28.5627 29.3666 27.672C29.3666 26.7653 29.5319 25.9707 29.8626 25.288C30.1932 24.6053 30.6626 24.0747 31.2706 23.696C31.8839 23.312 32.6119 23.12 33.4546 23.12C34.3186 23.12 35.0546 23.3147 35.6626 23.704C36.2759 24.088 36.7426 24.624 37.0626 25.312C37.3879 25.9947 37.5506 26.7813 37.5506 27.672C37.5506 28.5787 37.3879 29.376 37.0626 30.064C36.7372 30.7467 36.2679 31.28 35.6546 31.664C35.0412 32.048 34.3079 32.24 33.4546 32.24ZM33.4546 31.112C34.4146 31.112 35.1292 30.7947 35.5986 30.16C36.0679 29.52 36.3026 28.6907 36.3026 27.672C36.3026 26.6267 36.0652 25.7947 35.5906 25.176C35.1212 24.5573 34.4092 24.248 33.4546 24.248C32.8092 24.248 32.2759 24.3947 31.8546 24.688C31.4386 24.976 31.1266 25.3787 30.9186 25.896C30.7159 26.408 30.6146 27 30.6146 27.672C30.6146 28.712 30.8546 29.5467 31.3346 30.176C31.8146 30.8 32.5212 31.112 33.4546 31.112ZM45.5553 32V27.592C45.5553 27.112 45.51 26.672 45.4193 26.272C45.3286 25.8667 45.182 25.5147 44.9793 25.216C44.782 24.912 44.5233 24.6773 44.2033 24.512C43.8886 24.3467 43.5046 24.264 43.0513 24.264C42.6353 24.264 42.2673 24.336 41.9473 24.48C41.6326 24.624 41.366 24.832 41.1473 25.104C40.934 25.3707 40.7713 25.696 40.6593 26.08C40.5473 26.464 40.4913 26.9013 40.4913 27.392L39.6593 27.208C39.6593 26.3227 39.814 25.5787 40.1233 24.976C40.4326 24.3733 40.8593 23.9173 41.4033 23.608C41.9473 23.2987 42.5713 23.144 43.2753 23.144C43.7926 23.144 44.2433 23.224 44.6273 23.384C45.0166 23.544 45.3446 23.76 45.6113 24.032C45.8833 24.304 46.102 24.616 46.2673 24.968C46.4326 25.3147 46.5526 25.6853 46.6273 26.08C46.702 26.4693 46.7393 26.8587 46.7393 27.248V32H45.5553ZM39.3073 32V23.36H40.3713V25.488H40.4913V32H39.3073ZM55.0553 32V27.592C55.0553 27.112 55.01 26.672 54.9193 26.272C54.8286 25.8667 54.682 25.5147 54.4793 25.216C54.282 24.912 54.0233 24.6773 53.7033 24.512C53.3886 24.3467 53.0046 24.264 52.5513 24.264C52.1353 24.264 51.7673 24.336 51.4473 24.48C51.1326 24.624 50.866 24.832 50.6473 25.104C50.434 25.3707 50.2713 25.696 50.1593 26.08C50.0473 26.464 49.9913 26.9013 49.9913 27.392L49.1593 27.208C49.1593 26.3227 49.314 25.5787 49.6233 24.976C49.9326 24.3733 50.3593 23.9173 50.9033 23.608C51.4473 23.2987 52.0713 23.144 52.7753 23.144C53.2926 23.144 53.7433 23.224 54.1273 23.384C54.5166 23.544 54.8446 23.76 55.1113 24.032C55.3833 24.304 55.602 24.616 55.7673 24.968C55.9326 25.3147 56.0526 25.6853 56.1273 26.08C56.202 26.4693 56.2393 26.8587 56.2393 27.248V32H55.0553ZM48.8073 32V23.36H49.8713V25.488H49.9913V32H48.8073ZM61.9244 32.24C61.0818 32.24 60.3511 32.0533 59.7324 31.68C59.1191 31.3067 58.6418 30.7813 58.3004 30.104C57.9591 29.4267 57.7884 28.632 57.7884 27.72C57.7884 26.776 57.9564 25.96 58.2924 25.272C58.6284 24.584 59.1004 24.0533 59.7084 23.68C60.3218 23.3067 61.0444 23.12 61.8764 23.12C62.7298 23.12 63.4578 23.3173 64.0604 23.712C64.6631 24.1013 65.1191 24.6613 65.4284 25.392C65.7378 26.1227 65.8791 26.9947 65.8524 28.008H64.6524V27.592C64.6311 26.472 64.3884 25.6267 63.9244 25.056C63.4658 24.4853 62.7938 24.2 61.9084 24.2C60.9804 24.2 60.2684 24.5013 59.7724 25.104C59.2818 25.7067 59.0364 26.5653 59.0364 27.68C59.0364 28.768 59.2818 29.6133 59.7724 30.216C60.2684 30.8133 60.9698 31.112 61.8764 31.112C62.4951 31.112 63.0338 30.9707 63.4924 30.688C63.9564 30.4 64.3218 29.9867 64.5884 29.448L65.6844 29.872C65.3431 30.624 64.8391 31.208 64.1724 31.624C63.5111 32.0347 62.7618 32.24 61.9244 32.24ZM58.6204 28.008V27.024H65.2204V28.008H58.6204ZM71.2118 32.24C70.3425 32.24 69.6065 32.0453 69.0038 31.656C68.4011 31.2667 67.9425 30.7307 67.6278 30.048C67.3185 29.36 67.1585 28.5707 67.1478 27.68C67.1585 26.7733 67.3238 25.9787 67.6438 25.296C67.9638 24.608 68.4251 24.0747 69.0278 23.696C69.6305 23.312 70.3611 23.12 71.2198 23.12C72.0945 23.12 72.8545 23.3333 73.4998 23.76C74.1505 24.1867 74.5958 24.7707 74.8358 25.512L73.6838 25.88C73.4811 25.3627 73.1585 24.9627 72.7158 24.68C72.2785 24.392 71.7771 24.248 71.2118 24.248C70.5771 24.248 70.0518 24.3947 69.6358 24.688C69.2198 24.976 68.9105 25.3787 68.7078 25.896C68.5051 26.4133 68.4011 27.008 68.3958 27.68C68.4065 28.7147 68.6465 29.5467 69.1158 30.176C69.5851 30.8 70.2838 31.112 71.2118 31.112C71.7985 31.112 72.2971 30.9787 72.7078 30.712C73.1238 30.44 73.4385 30.0453 73.6518 29.528L74.8358 29.88C74.5158 30.648 74.0465 31.2347 73.4278 31.64C72.8091 32.04 72.0705 32.24 71.2118 32.24ZM81.1912 32C80.7059 32.1013 80.2259 32.1413 79.7512 32.12C79.2819 32.0987 78.8605 31.9973 78.4872 31.816C78.1192 31.6347 77.8392 31.352 77.6472 30.968C77.4925 30.648 77.4072 30.3253 77.3912 30C77.3805 29.6693 77.3752 29.2933 77.3752 28.872V20.96H78.5432V28.824C78.5432 29.1867 78.5459 29.4907 78.5512 29.736C78.5619 29.976 78.6179 30.1893 78.7192 30.376C78.9112 30.7333 79.2152 30.9467 79.6312 31.016C80.0525 31.0853 80.5725 31.0693 81.1912 30.968V32ZM75.5272 24.368V23.36H81.1912V24.368H75.5272ZM87.9366 32L85.2966 23.352L86.4726 23.36L88.5206 30.072L90.5766 23.36H91.6486L93.7046 30.072L95.7686 23.36H96.9366L94.2966 32H93.2726L91.1126 25.12L88.9606 32H87.9366ZM100.365 32.24C99.7148 32.24 99.1681 32.1227 98.7254 31.888C98.2881 31.6533 97.9601 31.3413 97.7414 30.952C97.5228 30.5627 97.4134 30.1387 97.4134 29.68C97.4134 29.2107 97.5068 28.8107 97.6934 28.48C97.8854 28.144 98.1441 27.8693 98.4694 27.656C98.8001 27.4427 99.1814 27.28 99.6134 27.168C100.051 27.0613 100.533 26.968 101.061 26.888C101.595 26.8027 102.115 26.7307 102.621 26.672C103.133 26.608 103.581 26.5467 103.965 26.488L103.549 26.744C103.565 25.8907 103.4 25.2587 103.053 24.848C102.707 24.4373 102.104 24.232 101.245 24.232C100.653 24.232 100.152 24.3653 99.7414 24.632C99.3361 24.8987 99.0508 25.32 98.8854 25.896L97.7414 25.56C97.9388 24.7867 98.3361 24.1867 98.9334 23.76C99.5308 23.3333 100.307 23.12 101.261 23.12C102.051 23.12 102.72 23.2693 103.269 23.568C103.824 23.8613 104.216 24.288 104.445 24.848C104.552 25.0987 104.621 25.3787 104.653 25.688C104.685 25.9973 104.701 26.312 104.701 26.632V32H103.653V29.832L103.957 29.96C103.664 30.7013 103.208 31.2667 102.589 31.656C101.971 32.0453 101.229 32.24 100.365 32.24ZM100.501 31.224C101.051 31.224 101.531 31.1253 101.941 30.928C102.352 30.7307 102.683 30.4613 102.933 30.12C103.184 29.7733 103.347 29.384 103.421 28.952C103.485 28.6747 103.52 28.3707 103.525 28.04C103.531 27.704 103.533 27.4533 103.533 27.288L103.981 27.52C103.581 27.5733 103.147 27.6267 102.677 27.68C102.213 27.7333 101.755 27.7947 101.301 27.864C100.853 27.9333 100.448 28.016 100.085 28.112C99.8401 28.1813 99.6028 28.28 99.3734 28.408C99.1441 28.5307 98.9548 28.696 98.8054 28.904C98.6614 29.112 98.5894 29.3707 98.5894 29.68C98.5894 29.9307 98.6508 30.1733 98.7734 30.408C98.9014 30.6427 99.1041 30.8373 99.3814 30.992C99.6641 31.1467 100.037 31.224 100.501 31.224ZM106.944 32V20.24H108.12V32H106.944ZM110.678 32V20.24H111.854V32H110.678ZM117.909 32.24C117.066 32.24 116.335 32.0533 115.717 31.68C115.103 31.3067 114.626 30.7813 114.285 30.104C113.943 29.4267 113.773 28.632 113.773 27.72C113.773 26.776 113.941 25.96 114.277 25.272C114.613 24.584 115.085 24.0533 115.693 23.68C116.306 23.3067 117.029 23.12 117.861 23.12C118.714 23.12 119.442 23.3173 120.045 23.712C120.647 24.1013 121.103 24.6613 121.413 25.392C121.722 26.1227 121.863 26.9947 121.837 28.008H120.637V27.592C120.615 26.472 120.373 25.6267 119.909 25.056C119.45 24.4853 118.778 24.2 117.893 24.2C116.965 24.2 116.253 24.5013 115.757 25.104C115.266 25.7067 115.021 26.5653 115.021 27.68C115.021 28.768 115.266 29.6133 115.757 30.216C116.253 30.8133 116.954 31.112 117.861 31.112C118.479 31.112 119.018 30.9707 119.477 30.688C119.941 30.4 120.306 29.9867 120.573 29.448L121.669 29.872C121.327 30.624 120.823 31.208 120.157 31.624C119.495 32.0347 118.746 32.24 117.909 32.24ZM114.605 28.008V27.024H121.205V28.008H114.605ZM128.316 32C127.831 32.1013 127.351 32.1413 126.876 32.12C126.407 32.0987 125.986 31.9973 125.612 31.816C125.244 31.6347 124.964 31.352 124.772 30.968C124.618 30.648 124.532 30.3253 124.516 30C124.506 29.6693 124.5 29.2933 124.5 28.872V20.96H125.668V28.824C125.668 29.1867 125.671 29.4907 125.676 29.736C125.687 29.976 125.743 30.1893 125.844 30.376C126.036 30.7333 126.34 30.9467 126.756 31.016C127.178 31.0853 127.698 31.0693 128.316 30.968V32ZM122.652 24.368V23.36H128.316V24.368H122.652Z" fill="#00FF55"/>
</svg>
