<svg width="339" height="18" viewBox="0 0 339 18" fill="none" xmlns="http://www.w3.org/2000/svg">
<path d="M5.61219 14.24C4.80685 14.24 4.08152 14.1067 3.43619 13.84C2.79619 13.568 2.26552 13.184 1.84419 12.688C1.42819 12.192 1.15619 11.6027 1.02819 10.92L2.22819 10.72C2.42019 11.4667 2.82552 12.0533 3.44419 12.48C4.06285 12.9013 4.80152 13.112 5.66019 13.112C6.22552 13.112 6.73219 13.024 7.18019 12.848C7.62819 12.6667 7.98019 12.4107 8.23619 12.08C8.49219 11.7493 8.62019 11.3573 8.62019 10.904C8.62019 10.6053 8.56685 10.352 8.46019 10.144C8.35352 9.93067 8.21219 9.75467 8.03619 9.616C7.86019 9.47733 7.66819 9.36267 7.46019 9.272C7.25219 9.176 7.04952 9.09867 6.85219 9.04L3.93219 8.168C3.58019 8.06667 3.25485 7.93867 2.95619 7.784C2.65752 7.624 2.39619 7.43467 2.17219 7.216C1.95352 6.992 1.78285 6.73067 1.66019 6.432C1.53752 6.13333 1.47619 5.792 1.47619 5.408C1.47619 4.75733 1.64685 4.19467 1.98819 3.72C2.32952 3.24533 2.79619 2.88 3.38819 2.624C3.98019 2.368 4.65485 2.24267 5.41219 2.248C6.18019 2.248 6.86552 2.384 7.46819 2.656C8.07619 2.928 8.57752 3.31733 8.97219 3.824C9.36685 4.32533 9.62819 4.92 9.75619 5.608L8.52419 5.832C8.44419 5.33067 8.26019 4.896 7.97219 4.528C7.68419 4.16 7.31619 3.87733 6.86819 3.68C6.42552 3.47733 5.93752 3.37333 5.40419 3.368C4.88685 3.368 4.42552 3.456 4.02019 3.632C3.62019 3.80267 3.30285 4.03733 3.06819 4.336C2.83352 4.63467 2.71619 4.976 2.71619 5.36C2.71619 5.74933 2.82285 6.06133 3.03619 6.296C3.25485 6.53067 3.52152 6.71467 3.83619 6.848C4.15619 6.98133 4.46552 7.09067 4.76419 7.176L7.02019 7.84C7.25485 7.904 7.52952 7.99733 7.84419 8.12C8.16419 8.23733 8.47352 8.408 8.77219 8.632C9.07619 8.85067 9.32685 9.13867 9.52419 9.496C9.72152 9.85333 9.82019 10.3067 9.82019 10.856C9.82019 11.3893 9.71352 11.8667 9.50019 12.288C9.29219 12.7093 8.99619 13.064 8.61219 13.352C8.23352 13.64 7.78819 13.8587 7.27619 14.008C6.76952 14.1627 6.21485 14.24 5.61219 14.24ZM13.3116 14L10.6716 5.352L11.8476 5.36L13.8956 12.072L15.9516 5.36H17.0236L19.0796 12.072L21.1436 5.36H22.3116L19.6716 14H18.6476L16.4876 7.12L14.3356 14H13.3116ZM25.7404 14.24C25.0898 14.24 24.5431 14.1227 24.1004 13.888C23.6631 13.6533 23.3351 13.3413 23.1164 12.952C22.8978 12.5627 22.7884 12.1387 22.7884 11.68C22.7884 11.2107 22.8818 10.8107 23.0684 10.48C23.2604 10.144 23.5191 9.86933 23.8444 9.656C24.1751 9.44267 24.5564 9.28 24.9884 9.168C25.4258 9.06133 25.9084 8.968 26.4364 8.888C26.9698 8.80267 27.4898 8.73067 27.9964 8.672C28.5084 8.608 28.9564 8.54667 29.3404 8.488L28.9244 8.744C28.9404 7.89067 28.7751 7.25867 28.4284 6.848C28.0818 6.43733 27.4791 6.232 26.6204 6.232C26.0284 6.232 25.5271 6.36533 25.1164 6.632C24.7111 6.89867 24.4258 7.32 24.2604 7.896L23.1164 7.56C23.3138 6.78667 23.7111 6.18667 24.3084 5.76C24.9058 5.33333 25.6818 5.12 26.6364 5.12C27.4258 5.12 28.0951 5.26933 28.6444 5.568C29.1991 5.86133 29.5911 6.288 29.8204 6.848C29.9271 7.09867 29.9964 7.37867 30.0284 7.688C30.0604 7.99733 30.0764 8.312 30.0764 8.632V14H29.0284V11.832L29.3324 11.96C29.0391 12.7013 28.5831 13.2667 27.9644 13.656C27.3458 14.0453 26.6044 14.24 25.7404 14.24ZM25.8764 13.224C26.4258 13.224 26.9058 13.1253 27.3164 12.928C27.7271 12.7307 28.0578 12.4613 28.3084 12.12C28.5591 11.7733 28.7218 11.384 28.7964 10.952C28.8604 10.6747 28.8951 10.3707 28.9004 10.04C28.9058 9.704 28.9084 9.45333 28.9084 9.288L29.3564 9.52C28.9564 9.57333 28.5218 9.62667 28.0524 9.68C27.5884 9.73333 27.1298 9.79467 26.6764 9.864C26.2284 9.93333 25.8231 10.016 25.4604 10.112C25.2151 10.1813 24.9778 10.28 24.7484 10.408C24.5191 10.5307 24.3298 10.696 24.1804 10.904C24.0364 11.112 23.9644 11.3707 23.9644 11.68C23.9644 11.9307 24.0258 12.1733 24.1484 12.408C24.2764 12.6427 24.4791 12.8373 24.7564 12.992C25.0391 13.1467 25.4124 13.224 25.8764 13.224ZM36.0391 14.24C35.2444 14.24 34.5724 14.04 34.0231 13.64C33.4737 13.2347 33.0577 12.688 32.7751 12C32.4924 11.3067 32.3511 10.5307 32.3511 9.672C32.3511 8.79733 32.4924 8.01867 32.7751 7.336C33.0631 6.648 33.4844 6.10667 34.0391 5.712C34.5937 5.31733 35.2764 5.12 36.0871 5.12C36.8764 5.12 37.5537 5.32 38.1191 5.72C38.6844 6.12 39.1164 6.664 39.4151 7.352C39.7191 8.04 39.8711 8.81333 39.8711 9.672C39.8711 10.536 39.7191 11.312 39.4151 12C39.1111 12.688 38.6737 13.2347 38.1031 13.64C37.5324 14.04 36.8444 14.24 36.0391 14.24ZM32.1511 17.84V5.36H33.2071V11.864H33.3351V17.84H32.1511ZM35.9191 13.144C36.5217 13.144 37.0231 12.992 37.4231 12.688C37.8231 12.384 38.1217 11.9707 38.3191 11.448C38.5217 10.92 38.6231 10.328 38.6231 9.672C38.6231 9.02133 38.5244 8.43467 38.3271 7.912C38.1297 7.38933 37.8284 6.976 37.4231 6.672C37.0231 6.368 36.5137 6.216 35.8951 6.216C35.2924 6.216 34.7911 6.36267 34.3911 6.656C33.9964 6.94933 33.7004 7.35733 33.5031 7.88C33.3057 8.39733 33.2071 8.99467 33.2071 9.672C33.2071 10.3387 33.3057 10.936 33.5031 11.464C33.7004 11.9867 33.9991 12.3973 34.3991 12.696C34.7991 12.9947 35.3057 13.144 35.9191 13.144Z" fill="white"/>
<path d="M85.4794 14V2.48H92.6794V3.608H86.6554V7.592H91.7194V8.72H86.6554V12.872H92.6794V14H85.4794ZM97.0764 14.24C96.4257 14.24 95.879 14.1227 95.4364 13.888C94.999 13.6533 94.671 13.3413 94.4524 12.952C94.2337 12.5627 94.1244 12.1387 94.1244 11.68C94.1244 11.2107 94.2177 10.8107 94.4044 10.48C94.5964 10.144 94.855 9.86933 95.1804 9.656C95.511 9.44267 95.8924 9.28 96.3244 9.168C96.7617 9.06133 97.2444 8.968 97.7724 8.888C98.3057 8.80267 98.8257 8.73067 99.3324 8.672C99.8444 8.608 100.292 8.54667 100.676 8.488L100.26 8.744C100.276 7.89067 100.111 7.25867 99.7644 6.848C99.4177 6.43733 98.815 6.232 97.9564 6.232C97.3644 6.232 96.863 6.36533 96.4524 6.632C96.047 6.89867 95.7617 7.32 95.5964 7.896L94.4524 7.56C94.6497 6.78667 95.047 6.18667 95.6444 5.76C96.2417 5.33333 97.0177 5.12 97.9724 5.12C98.7617 5.12 99.431 5.26933 99.9804 5.568C100.535 5.86133 100.927 6.288 101.156 6.848C101.263 7.09867 101.332 7.37867 101.364 7.688C101.396 7.99733 101.412 8.312 101.412 8.632V14H100.364V11.832L100.668 11.96C100.375 12.7013 99.919 13.2667 99.3004 13.656C98.6817 14.0453 97.9404 14.24 97.0764 14.24ZM97.2124 13.224C97.7617 13.224 98.2417 13.1253 98.6524 12.928C99.063 12.7307 99.3937 12.4613 99.6444 12.12C99.895 11.7733 100.058 11.384 100.132 10.952C100.196 10.6747 100.231 10.3707 100.236 10.04C100.242 9.704 100.244 9.45333 100.244 9.288L100.692 9.52C100.292 9.57333 99.8577 9.62667 99.3884 9.68C98.9244 9.73333 98.4657 9.79467 98.0124 9.864C97.5644 9.93333 97.159 10.016 96.7964 10.112C96.551 10.1813 96.3137 10.28 96.0844 10.408C95.855 10.5307 95.6657 10.696 95.5164 10.904C95.3724 11.112 95.3004 11.3707 95.3004 11.68C95.3004 11.9307 95.3617 12.1733 95.4844 12.408C95.6124 12.6427 95.815 12.8373 96.0924 12.992C96.375 13.1467 96.7484 13.224 97.2124 13.224ZM103.495 14V5.36H104.551V7.44L104.343 7.168C104.439 6.912 104.564 6.67733 104.719 6.464C104.874 6.24533 105.042 6.06667 105.223 5.928C105.447 5.73067 105.708 5.58133 106.007 5.48C106.306 5.37333 106.607 5.312 106.911 5.296C107.215 5.27467 107.492 5.296 107.743 5.36V6.464C107.428 6.384 107.084 6.36533 106.711 6.408C106.338 6.45067 105.994 6.6 105.679 6.856C105.391 7.08 105.175 7.34933 105.031 7.664C104.887 7.97333 104.791 8.304 104.743 8.656C104.695 9.00267 104.671 9.34667 104.671 9.688V14H103.495ZM115.501 14V9.592C115.501 9.112 115.455 8.672 115.365 8.272C115.274 7.86667 115.127 7.51467 114.925 7.216C114.727 6.912 114.469 6.67733 114.149 6.512C113.834 6.34667 113.45 6.264 112.997 6.264C112.581 6.264 112.213 6.336 111.893 6.48C111.578 6.624 111.311 6.832 111.093 7.104C110.879 7.37067 110.717 7.696 110.605 8.08C110.493 8.464 110.437 8.90133 110.437 9.392L109.605 9.208C109.605 8.32267 109.759 7.57867 110.069 6.976C110.378 6.37333 110.805 5.91733 111.349 5.608C111.893 5.29867 112.517 5.144 113.221 5.144C113.738 5.144 114.189 5.224 114.573 5.384C114.962 5.544 115.29 5.76 115.557 6.032C115.829 6.304 116.047 6.616 116.213 6.968C116.378 7.31467 116.498 7.68533 116.573 8.08C116.647 8.46933 116.685 8.85867 116.685 9.248V14H115.501ZM109.253 14V5.36H110.317V7.488H110.437V14H109.253Z" fill="white"/>
<path d="M168.066 15.3C167.013 15.3 166.063 15.1167 165.216 14.75C164.376 14.3833 163.683 13.86 163.136 13.18C162.596 12.4933 162.253 11.68 162.106 10.74L164.606 10.36C164.819 11.2133 165.256 11.8733 165.916 12.34C166.583 12.8067 167.349 13.04 168.216 13.04C168.729 13.04 169.213 12.96 169.666 12.8C170.119 12.64 170.486 12.4067 170.766 12.1C171.053 11.7933 171.196 11.4167 171.196 10.97C171.196 10.77 171.163 10.5867 171.096 10.42C171.029 10.2467 170.929 10.0933 170.796 9.96C170.669 9.82667 170.503 9.70667 170.296 9.6C170.096 9.48667 169.863 9.39 169.596 9.31L165.876 8.21C165.556 8.11667 165.209 7.99333 164.836 7.84C164.469 7.68 164.119 7.46333 163.786 7.19C163.459 6.91 163.189 6.55667 162.976 6.13C162.769 5.69667 162.666 5.16333 162.666 4.53C162.666 3.60333 162.899 2.82667 163.366 2.2C163.839 1.56667 164.473 1.09333 165.266 0.779999C166.066 0.466666 166.953 0.313332 167.926 0.319999C168.913 0.326666 169.793 0.496666 170.566 0.829999C171.339 1.15667 171.986 1.63333 172.506 2.26C173.026 2.88667 173.393 3.64333 173.606 4.53L171.016 4.98C170.909 4.47333 170.703 4.04333 170.396 3.69C170.096 3.33 169.726 3.05667 169.286 2.87C168.853 2.68333 168.389 2.58333 167.896 2.57C167.416 2.56333 166.969 2.63667 166.556 2.79C166.149 2.93667 165.819 3.15 165.566 3.43C165.319 3.71 165.196 4.03667 165.196 4.41C165.196 4.76333 165.303 5.05333 165.516 5.28C165.729 5.5 165.993 5.67667 166.306 5.81C166.626 5.93667 166.949 6.04333 167.276 6.13L169.856 6.85C170.209 6.94333 170.606 7.07 171.046 7.23C171.486 7.39 171.909 7.61333 172.316 7.9C172.723 8.18667 173.056 8.56333 173.316 9.03C173.583 9.49667 173.716 10.09 173.716 10.81C173.716 11.5567 173.559 12.2133 173.246 12.78C172.939 13.34 172.523 13.8067 171.996 14.18C171.469 14.5533 170.866 14.8333 170.186 15.02C169.513 15.2067 168.806 15.3 168.066 15.3ZM180.65 15.3C179.57 15.3 178.627 15.0567 177.82 14.57C177.014 14.0833 176.387 13.4133 175.94 12.56C175.5 11.7 175.28 10.7133 175.28 9.6C175.28 8.46667 175.507 7.47333 175.96 6.62C176.414 5.76667 177.044 5.1 177.85 4.62C178.657 4.14 179.59 3.9 180.65 3.9C181.737 3.9 182.684 4.14333 183.49 4.63C184.297 5.11667 184.924 5.79 185.37 6.65C185.817 7.50333 186.04 8.48667 186.04 9.6C186.04 10.72 185.814 11.71 185.36 12.57C184.914 13.4233 184.287 14.0933 183.48 14.58C182.674 15.06 181.73 15.3 180.65 15.3ZM180.65 13.04C181.61 13.04 182.324 12.72 182.79 12.08C183.257 11.44 183.49 10.6133 183.49 9.6C183.49 8.55333 183.254 7.72 182.78 7.1C182.307 6.47333 181.597 6.16 180.65 6.16C180.004 6.16 179.47 6.30667 179.05 6.6C178.637 6.88667 178.33 7.29 178.13 7.81C177.93 8.32333 177.83 8.92 177.83 9.6C177.83 10.6467 178.067 11.4833 178.54 12.11C179.02 12.73 179.724 13.04 180.65 13.04ZM195.714 15V9.8C195.714 9.46 195.69 9.08333 195.644 8.67C195.597 8.25667 195.487 7.86 195.314 7.48C195.147 7.09333 194.894 6.77667 194.554 6.53C194.22 6.28333 193.767 6.16 193.194 6.16C192.887 6.16 192.584 6.21 192.284 6.31C191.984 6.41 191.71 6.58333 191.464 6.83C191.224 7.07 191.03 7.40333 190.884 7.83C190.737 8.25 190.664 8.79 190.664 9.45L189.234 8.84C189.234 7.92 189.41 7.08667 189.764 6.34C190.124 5.59333 190.65 5 191.344 4.56C192.037 4.11333 192.89 3.89 193.904 3.89C194.704 3.89 195.364 4.02333 195.884 4.29C196.404 4.55667 196.817 4.89667 197.124 5.31C197.43 5.72333 197.657 6.16333 197.804 6.63C197.95 7.09667 198.044 7.54 198.084 7.96C198.13 8.37333 198.154 8.71 198.154 8.97V15H195.714ZM188.224 15V4.2H190.374V7.55H190.664V15H188.224ZM200.963 2.56V0.35H203.373V2.56H200.963ZM200.963 15V4.2H203.373V15H200.963ZM211.059 15.3C209.945 15.3 208.995 15.0533 208.209 14.56C207.422 14.06 206.819 13.38 206.399 12.52C205.985 11.66 205.775 10.6867 205.769 9.6C205.775 8.49333 205.992 7.51333 206.419 6.66C206.852 5.8 207.465 5.12667 208.259 4.64C209.052 4.14667 209.995 3.9 211.089 3.9C212.315 3.9 213.352 4.21 214.199 4.83C215.052 5.44333 215.609 6.28333 215.869 7.35L213.469 8C213.282 7.42 212.972 6.97 212.539 6.65C212.105 6.32333 211.612 6.16 211.059 6.16C210.432 6.16 209.915 6.31 209.509 6.61C209.102 6.90333 208.802 7.31 208.609 7.83C208.415 8.35 208.319 8.94 208.319 9.6C208.319 10.6267 208.549 11.4567 209.009 12.09C209.469 12.7233 210.152 13.04 211.059 13.04C211.699 13.04 212.202 12.8933 212.569 12.6C212.942 12.3067 213.222 11.8833 213.409 11.33L215.869 11.88C215.535 12.98 214.952 13.8267 214.119 14.42C213.285 15.0067 212.265 15.3 211.059 15.3ZM217.882 15V12.53H220.352V15H217.882ZM223.556 15V0.599999H232.226V3.01H225.966V6.6H231.026V9H225.966V15H223.556ZM238.075 15.31C237.275 15.31 236.615 15.1767 236.095 14.91C235.575 14.6433 235.162 14.3033 234.855 13.89C234.548 13.4767 234.322 13.0367 234.175 12.57C234.028 12.1033 233.932 11.6633 233.885 11.25C233.845 10.83 233.825 10.49 233.825 10.23V4.2H236.265V9.4C236.265 9.73333 236.288 10.11 236.335 10.53C236.382 10.9433 236.488 11.3433 236.655 11.73C236.828 12.11 237.082 12.4233 237.415 12.67C237.755 12.9167 238.212 13.04 238.785 13.04C239.092 13.04 239.395 12.99 239.695 12.89C239.995 12.79 240.265 12.62 240.505 12.38C240.752 12.1333 240.948 11.7967 241.095 11.37C241.242 10.9433 241.315 10.4033 241.315 9.75L242.745 10.36C242.745 11.28 242.565 12.1133 242.205 12.86C241.852 13.6067 241.328 14.2033 240.635 14.65C239.942 15.09 239.088 15.31 238.075 15.31ZM241.605 15V11.65H241.315V4.2H243.735V15H241.605ZM254.015 15V9.8C254.015 9.46 253.991 9.08333 253.945 8.67C253.898 8.25667 253.788 7.86 253.615 7.48C253.448 7.09333 253.195 6.77667 252.855 6.53C252.521 6.28333 252.068 6.16 251.495 6.16C251.188 6.16 250.885 6.21 250.585 6.31C250.285 6.41 250.011 6.58333 249.765 6.83C249.525 7.07 249.331 7.40333 249.185 7.83C249.038 8.25 248.965 8.79 248.965 9.45L247.535 8.84C247.535 7.92 247.711 7.08667 248.065 6.34C248.425 5.59333 248.951 5 249.645 4.56C250.338 4.11333 251.191 3.89 252.205 3.89C253.005 3.89 253.665 4.02333 254.185 4.29C254.705 4.55667 255.118 4.89667 255.425 5.31C255.731 5.72333 255.958 6.16333 256.105 6.63C256.251 7.09667 256.345 7.54 256.385 7.96C256.431 8.37333 256.455 8.71 256.455 8.97V15H254.015ZM246.525 15V4.2H248.675V7.55H248.965V15H246.525Z" fill="#00FF55"/>
<path d="M302.175 14V2.48H303.255L307.783 12.168L312.287 2.48H313.383V13.992H312.263V5.104L308.159 14H307.399L303.303 5.104V14H302.175ZM319.236 14.24C318.377 14.24 317.644 14.0453 317.036 13.656C316.428 13.2667 315.961 12.728 315.636 12.04C315.31 11.352 315.148 10.5627 315.148 9.672C315.148 8.76533 315.313 7.97067 315.644 7.288C315.974 6.60533 316.444 6.07467 317.052 5.696C317.665 5.312 318.393 5.12 319.236 5.12C320.1 5.12 320.836 5.31467 321.444 5.704C322.057 6.088 322.524 6.624 322.844 7.312C323.169 7.99467 323.332 8.78133 323.332 9.672C323.332 10.5787 323.169 11.376 322.844 12.064C322.518 12.7467 322.049 13.28 321.436 13.664C320.822 14.048 320.089 14.24 319.236 14.24ZM319.236 13.112C320.196 13.112 320.91 12.7947 321.38 12.16C321.849 11.52 322.084 10.6907 322.084 9.672C322.084 8.62667 321.846 7.79467 321.372 7.176C320.902 6.55733 320.19 6.248 319.236 6.248C318.59 6.248 318.057 6.39467 317.636 6.688C317.22 6.976 316.908 7.37867 316.7 7.896C316.497 8.408 316.396 9 316.396 9.672C316.396 10.712 316.636 11.5467 317.116 12.176C317.596 12.8 318.302 13.112 319.236 13.112ZM325.097 14V5.36H326.153V7.44L325.945 7.168C326.041 6.912 326.166 6.67733 326.321 6.464C326.475 6.24533 326.643 6.06667 326.825 5.928C327.049 5.73067 327.31 5.58133 327.609 5.48C327.907 5.37333 328.209 5.312 328.513 5.296C328.817 5.27467 329.094 5.296 329.345 5.36V6.464C329.03 6.384 328.686 6.36533 328.313 6.408C327.939 6.45067 327.595 6.6 327.281 6.856C326.993 7.08 326.777 7.34933 326.633 7.664C326.489 7.97333 326.393 8.304 326.345 8.656C326.297 9.00267 326.273 9.34667 326.273 9.688V14H325.097ZM334.362 14.24C333.519 14.24 332.789 14.0533 332.17 13.68C331.557 13.3067 331.079 12.7813 330.738 12.104C330.397 11.4267 330.226 10.632 330.226 9.72C330.226 8.776 330.394 7.96 330.73 7.272C331.066 6.584 331.538 6.05333 332.146 5.68C332.759 5.30667 333.482 5.12 334.314 5.12C335.167 5.12 335.895 5.31733 336.498 5.712C337.101 6.10133 337.557 6.66133 337.866 7.392C338.175 8.12267 338.317 8.99467 338.29 10.008H337.09V9.592C337.069 8.472 336.826 7.62667 336.362 7.056C335.903 6.48533 335.231 6.2 334.346 6.2C333.418 6.2 332.706 6.50133 332.21 7.104C331.719 7.70667 331.474 8.56533 331.474 9.68C331.474 10.768 331.719 11.6133 332.21 12.216C332.706 12.8133 333.407 13.112 334.314 13.112C334.933 13.112 335.471 12.9707 335.93 12.688C336.394 12.4 336.759 11.9867 337.026 11.448L338.122 11.872C337.781 12.624 337.277 13.208 336.61 13.624C335.949 14.0347 335.199 14.24 334.362 14.24ZM331.058 10.008V9.024H337.658V10.008H331.058Z" fill="white"/>
</svg>
