<svg width="145" height="59" viewBox="0 0 145 59" fill="none" xmlns="http://www.w3.org/2000/svg">
<path d="M62.2089 18.5948L69.6236 26.5989L99 0L82.9348 18.5948L72.4482 29.6049L83.076 40.7198H77.3561L69.4823 32.2263L61.4321 40.7198L40 59L66.693 29.1854L56.5242 18.5948H62.2089Z" fill="#00FF55"/>
<path d="M5.50633 36.7631C4.84194 36.7211 4.19437 36.5865 3.56363 36.3594C2.93288 36.1324 2.37782 35.8254 1.89845 35.4386C1.42749 35.0433 1.07427 34.5807 0.838794 34.0509L3.07164 33.0922C3.18097 33.3192 3.3702 33.5421 3.63931 33.7608C3.91684 33.9794 4.24063 34.1602 4.61067 34.3032C4.98071 34.4378 5.36756 34.505 5.77124 34.505C6.16651 34.505 6.53235 34.4504 6.86874 34.341C7.21355 34.2233 7.49529 34.0467 7.71395 33.8112C7.93261 33.5757 8.04194 33.294 8.04194 32.966C8.04194 32.596 7.91579 32.31 7.66349 32.1082C7.4196 31.898 7.11263 31.7382 6.74259 31.6288C6.37256 31.5195 6.00252 31.4144 5.63248 31.3135C4.8083 31.1284 4.0514 30.8761 3.36179 30.5566C2.68058 30.2286 2.13813 29.8123 1.73446 29.3077C1.33078 28.7947 1.12894 28.1681 1.12894 27.4281C1.12894 26.6207 1.3476 25.9227 1.78492 25.334C2.22223 24.7369 2.79411 24.2785 3.50055 23.9589C4.2154 23.6394 4.9765 23.4796 5.78386 23.4796C6.79305 23.4796 7.71815 23.694 8.55915 24.1229C9.40015 24.5518 10.0435 25.1405 10.4892 25.889L8.40777 27.1253C8.28162 26.873 8.0924 26.6459 7.8401 26.4441C7.5878 26.2422 7.30186 26.0825 6.98228 25.9647C6.6627 25.8386 6.33051 25.7671 5.9857 25.7503C5.55679 25.7334 5.15731 25.7839 4.78728 25.9016C4.42565 26.011 4.1355 26.1876 3.91684 26.4315C3.69818 26.6754 3.58885 26.9865 3.58885 27.365C3.58885 27.735 3.71921 28.0125 3.97992 28.1976C4.24063 28.3742 4.56862 28.5171 4.96389 28.6265C5.36756 28.7358 5.77965 28.8577 6.20015 28.9923C6.94864 29.2278 7.65087 29.5179 8.30685 29.8627C8.96283 30.1991 9.49266 30.6154 9.89633 31.1116C10.3 31.6078 10.4934 32.2133 10.4766 32.9282C10.4766 33.7187 10.2369 34.4125 9.75757 35.0096C9.28661 35.6068 8.67268 36.0609 7.91579 36.3721C7.15889 36.6832 6.35574 36.8136 5.50633 36.7631ZM18.0148 36.8514C16.8543 36.8514 15.7946 36.5529 14.8359 35.9558C13.8856 35.3587 13.1244 34.5597 12.5526 33.5589C11.9891 32.5497 11.7074 31.4354 11.7074 30.216C11.7074 29.2909 11.8714 28.4288 12.1994 27.6299C12.5273 26.8225 12.9773 26.1161 13.5492 25.5106C14.1294 24.8967 14.8022 24.4173 15.5675 24.0725C16.3329 23.7277 17.1486 23.5553 18.0148 23.5553C19.1754 23.5553 20.2309 23.8538 21.1812 24.4509C22.1399 25.048 22.901 25.8512 23.4645 26.8604C24.0364 27.8696 24.3223 28.9881 24.3223 30.216C24.3223 31.1326 24.1583 31.9905 23.8303 32.7894C23.5024 33.5884 23.0482 34.2948 22.4679 34.9087C21.8961 35.5142 21.2275 35.9894 20.4622 36.3342C19.7053 36.679 18.8895 36.8514 18.0148 36.8514ZM18.0148 34.2275C18.7129 34.2275 19.3394 34.0425 19.8945 33.6725C20.4495 33.3024 20.8869 32.8146 21.2064 32.2091C21.5344 31.5952 21.6984 30.9308 21.6984 30.216C21.6984 29.4843 21.5302 28.8115 21.1938 28.1976C20.8658 27.5836 20.4243 27.0959 19.8692 26.7342C19.3142 26.3642 18.6961 26.1792 18.0148 26.1792C17.3252 26.1792 16.6987 26.3642 16.1352 26.7342C15.5802 27.1043 15.1386 27.5963 14.8106 28.2102C14.4911 28.8241 14.3313 29.4927 14.3313 30.216C14.3313 30.9644 14.4995 31.6414 14.8359 32.247C15.1723 32.8525 15.618 33.3361 16.1731 33.6977C16.7365 34.0509 17.3505 34.2275 18.0148 34.2275ZM37.7139 28.6139V36.5234H35.09V29.2572C35.09 28.6938 34.9512 28.1807 34.6737 27.7182C34.4046 27.2556 34.0387 26.8898 33.5762 26.6207C33.1221 26.3432 32.609 26.2044 32.0372 26.2044C31.4821 26.2044 30.9733 26.3432 30.5108 26.6207C30.0482 26.8898 29.6782 27.2556 29.4006 27.7182C29.1231 28.1807 28.9843 28.6938 28.9843 29.2572V36.5234H26.3604V23.9085H28.9843V25.2457C29.4217 24.7242 29.9599 24.3122 30.5991 24.0094C31.2382 23.7066 31.9278 23.5553 32.6679 23.5553C33.6014 23.5553 34.4508 23.7823 35.2161 24.2365C35.9814 24.6906 36.587 25.3003 37.0327 26.0656C37.4868 26.8309 37.7139 27.6804 37.7139 28.6139ZM40.232 23.9085H42.8559V36.5234H40.232V23.9085ZM41.5691 22.0793C41.1655 22.0793 40.8291 21.949 40.5599 21.6882C40.2908 21.4275 40.1563 21.0995 40.1563 20.7043C40.1563 20.3174 40.2908 19.9936 40.5599 19.7329C40.8291 19.4638 41.1613 19.3292 41.5565 19.3292C41.9434 19.3292 42.2714 19.4638 42.5405 19.7329C42.8096 19.9936 42.9442 20.3174 42.9442 20.7043C42.9442 21.0995 42.8096 21.4275 42.5405 21.6882C42.2798 21.949 41.956 22.0793 41.5691 22.0793ZM53.89 32.9408L56.2364 34.2149C55.6645 35.0138 54.9371 35.653 54.054 36.1324C53.1794 36.6117 52.2291 36.8514 51.203 36.8514C50.0425 36.8514 48.9828 36.5529 48.0241 35.9558C47.0737 35.3587 46.3126 34.5597 45.7408 33.5589C45.1773 32.5497 44.8956 31.4354 44.8956 30.216C44.8956 29.2909 45.0595 28.4288 45.3875 27.6299C45.7155 26.8225 46.1655 26.1161 46.7373 25.5106C47.3176 24.8967 47.9904 24.4173 48.7557 24.0725C49.521 23.7277 50.3368 23.5553 51.203 23.5553C52.2291 23.5553 53.1794 23.7949 54.054 24.2743C54.9371 24.7537 55.6645 25.397 56.2364 26.2044L53.89 27.4785C53.5368 27.058 53.1247 26.7384 52.6538 26.5198C52.1828 26.2927 51.6992 26.1792 51.203 26.1792C50.5134 26.1792 49.8869 26.3684 49.3234 26.7468C48.7683 27.1169 48.3268 27.6089 47.9988 28.2228C47.6793 28.8283 47.5195 29.4927 47.5195 30.216C47.5195 30.9308 47.6835 31.5952 48.0114 32.2091C48.3394 32.8146 48.781 33.3024 49.336 33.6725C49.8995 34.0425 50.5218 34.2275 51.203 34.2275C51.7245 34.2275 52.2206 34.1098 52.6916 33.8743C53.1626 33.6388 53.562 33.3276 53.89 32.9408Z" fill="white"/>
<path d="M87.8691 36.7631C87.2047 36.7211 86.5571 36.5865 85.9264 36.3594C85.2956 36.1324 84.7406 35.8254 84.2612 35.4386C83.7902 35.0433 83.437 34.5807 83.2015 34.0509L85.4344 33.0922C85.5437 33.3192 85.733 33.5421 86.0021 33.7608C86.2796 33.9794 86.6034 34.1602 86.9734 34.3032C87.3435 34.4378 87.7303 34.505 88.134 34.505C88.5293 34.505 88.8951 34.4504 89.2315 34.341C89.5763 34.2233 89.858 34.0467 90.0767 33.8112C90.2954 33.5757 90.4047 33.294 90.4047 32.966C90.4047 32.596 90.2785 32.31 90.0262 32.1082C89.7824 31.898 89.4754 31.7382 89.1053 31.6288C88.7353 31.5195 88.3653 31.4144 87.9952 31.3135C87.1711 31.1284 86.4142 30.8761 85.7245 30.5566C85.0433 30.2286 84.5009 29.8123 84.0972 29.3077C83.6935 28.7947 83.4917 28.1681 83.4917 27.4281C83.4917 26.6207 83.7104 25.9227 84.1477 25.334C84.585 24.7369 85.1569 24.2785 85.8633 23.9589C86.5782 23.6394 87.3393 23.4796 88.1466 23.4796C89.1558 23.4796 90.0809 23.694 90.9219 24.1229C91.7629 24.5518 92.4063 25.1405 92.852 25.889L90.7705 27.1253C90.6444 26.873 90.4552 26.6459 90.2029 26.4441C89.9506 26.2422 89.6646 26.0825 89.345 25.9647C89.0255 25.8386 88.6933 25.7671 88.3485 25.7503C87.9195 25.7334 87.5201 25.7839 87.15 25.9016C86.7884 26.011 86.4983 26.1876 86.2796 26.4315C86.0609 26.6754 85.9516 26.9865 85.9516 27.365C85.9516 27.735 86.082 28.0125 86.3427 28.1976C86.6034 28.3742 86.9314 28.5171 87.3266 28.6265C87.7303 28.7358 88.1424 28.8577 88.5629 28.9923C89.3114 29.2278 90.0136 29.5179 90.6696 29.8627C91.3256 30.1991 91.8554 30.6154 92.2591 31.1116C92.6628 31.6078 92.8562 32.2133 92.8394 32.9282C92.8394 33.7187 92.5997 34.4125 92.1203 35.0096C91.6494 35.6068 91.0354 36.0609 90.2785 36.3721C89.5216 36.6832 88.7185 36.8136 87.8691 36.7631ZM100.686 36.5234H98.0744L93.8484 23.9085H96.4218L99.399 32.7642L102.351 23.9085H105L107.952 32.7642L110.916 23.9085H113.49L109.276 36.5234H106.64L103.663 27.6047L100.686 36.5234ZM124.771 23.9085H127.395V36.5234H124.759L124.658 34.6943C124.288 35.3418 123.787 35.8633 123.156 36.2585C122.526 36.6538 121.781 36.8514 120.924 36.8514C119.999 36.8514 119.128 36.679 118.312 36.3342C117.497 35.981 116.778 35.4932 116.155 34.8709C115.541 34.2485 115.062 33.5337 114.717 32.7263C114.372 31.9106 114.2 31.0359 114.2 30.1024C114.2 29.2026 114.368 28.3574 114.704 27.5668C115.041 26.7679 115.508 26.0698 116.105 25.4727C116.702 24.8756 117.391 24.4089 118.174 24.0725C118.964 23.7277 119.809 23.5553 120.709 23.5553C121.626 23.5553 122.433 23.7655 123.131 24.186C123.838 24.5981 124.422 25.1279 124.885 25.7755L124.771 23.9085ZM120.861 34.3158C121.601 34.3158 122.248 34.135 122.803 33.7734C123.358 33.4033 123.787 32.9071 124.09 32.2848C124.401 31.6625 124.557 30.9729 124.557 30.216C124.557 29.4507 124.401 28.7568 124.09 28.1345C123.779 27.5122 123.346 27.0202 122.791 26.6585C122.244 26.2885 121.601 26.1035 120.861 26.1035C120.129 26.1035 119.46 26.2885 118.855 26.6585C118.249 27.0286 117.77 27.5248 117.417 28.1471C117.063 28.7694 116.887 29.4591 116.887 30.216C116.887 30.9813 117.068 31.6751 117.429 32.2974C117.799 32.9114 118.283 33.4033 118.88 33.7734C119.486 34.135 120.146 34.3158 120.861 34.3158ZM132.536 42.8309H129.912V23.9085H132.536V25.7629C132.957 25.1153 133.495 24.5897 134.151 24.186C134.807 23.7823 135.581 23.5805 136.472 23.5805C137.389 23.5805 138.247 23.7529 139.046 24.0977C139.853 24.4425 140.559 24.9219 141.165 25.5358C141.77 26.1413 142.246 26.8436 142.59 27.6425C142.935 28.4415 143.108 29.2993 143.108 30.216C143.108 31.1326 142.935 31.9947 142.59 32.802C142.246 33.6094 141.77 34.32 141.165 34.934C140.559 35.5395 139.853 36.0146 139.046 36.3594C138.247 36.7043 137.389 36.8767 136.472 36.8767C135.581 36.8767 134.807 36.6748 134.151 36.2711C133.495 35.859 132.957 35.3334 132.536 34.6943V42.8309ZM136.447 26.1161C135.715 26.1161 135.072 26.3011 134.517 26.6712C133.962 27.0412 133.529 27.5374 133.217 28.1597C132.906 28.7736 132.751 29.4591 132.751 30.216C132.751 30.9729 132.906 31.6625 133.217 32.2848C133.529 32.9071 133.962 33.4033 134.517 33.7734C135.072 34.1434 135.715 34.3284 136.447 34.3284C137.17 34.3284 137.835 34.1476 138.44 33.786C139.046 33.416 139.529 32.9198 139.891 32.2974C140.252 31.6751 140.433 30.9813 140.433 30.216C140.433 29.4675 140.252 28.7821 139.891 28.1597C139.538 27.5374 139.058 27.0412 138.453 26.6712C137.847 26.3011 137.179 26.1161 136.447 26.1161Z" fill="white"/>
</svg>
