<svg width="79" height="31" viewBox="0 0 79 31" fill="none" xmlns="http://www.w3.org/2000/svg">
<path d="M1.33094 21.5V9.98H2.50694V15.172H8.87494V9.98H10.0429V21.5H8.87494V16.3H2.50694V21.5H1.33094ZM15.8921 21.74C15.0334 21.74 14.3001 21.5453 13.6921 21.156C13.0841 20.7667 12.6174 20.228 12.2921 19.54C11.9667 18.852 11.8041 18.0627 11.8041 17.172C11.8041 16.2653 11.9694 15.4707 12.3001 14.788C12.6307 14.1053 13.1001 13.5747 13.7081 13.196C14.3214 12.812 15.0494 12.62 15.8921 12.62C16.7561 12.62 17.4921 12.8147 18.1001 13.204C18.7134 13.588 19.1801 14.124 19.5001 14.812C19.8254 15.4947 19.9881 16.2813 19.9881 17.172C19.9881 18.0787 19.8254 18.876 19.5001 19.564C19.1747 20.2467 18.7054 20.78 18.0921 21.164C17.4787 21.548 16.7454 21.74 15.8921 21.74ZM15.8921 20.612C16.8521 20.612 17.5667 20.2947 18.0361 19.66C18.5054 19.02 18.7401 18.1907 18.7401 17.172C18.7401 16.1267 18.5027 15.2947 18.0281 14.676C17.5587 14.0573 16.8467 13.748 15.8921 13.748C15.2467 13.748 14.7134 13.8947 14.2921 14.188C13.8761 14.476 13.5641 14.8787 13.3561 15.396C13.1534 15.908 13.0521 16.5 13.0521 17.172C13.0521 18.212 13.2921 19.0467 13.7721 19.676C14.2521 20.3 14.9587 20.612 15.8921 20.612ZM26.4568 21.5C25.9715 21.6013 25.4915 21.6413 25.0168 21.62C24.5475 21.5987 24.1261 21.4973 23.7528 21.316C23.3848 21.1347 23.1048 20.852 22.9128 20.468C22.7581 20.148 22.6728 19.8253 22.6568 19.5C22.6461 19.1693 22.6408 18.7933 22.6408 18.372V10.46H23.8088V18.324C23.8088 18.6867 23.8115 18.9907 23.8168 19.236C23.8275 19.476 23.8835 19.6893 23.9848 19.876C24.1768 20.2333 24.4808 20.4467 24.8968 20.516C25.3181 20.5853 25.8381 20.5693 26.4568 20.468V21.5ZM20.7928 13.868V12.86H26.4568V13.868H20.7928ZM31.3622 21.5V9.98H35.8102C35.9222 9.98 36.0475 9.98533 36.1862 9.996C36.3302 10.0013 36.4742 10.0173 36.6182 10.044C37.2209 10.1347 37.7302 10.3453 38.1462 10.676C38.5675 11.0013 38.8849 11.412 39.0982 11.908C39.3169 12.404 39.4262 12.9533 39.4262 13.556C39.4262 14.1533 39.3169 14.7 39.0982 15.196C38.8795 15.692 38.5595 16.1053 38.1382 16.436C37.7222 16.7613 37.2155 16.9693 36.6182 17.06C36.4742 17.0813 36.3302 17.0973 36.1862 17.108C36.0475 17.1187 35.9222 17.124 35.8102 17.124H32.5382V21.5H31.3622ZM32.5382 16.004H35.7782C35.8742 16.004 35.9862 15.9987 36.1142 15.988C36.2422 15.9773 36.3675 15.9587 36.4902 15.932C36.8849 15.8467 37.2075 15.684 37.4582 15.444C37.7142 15.204 37.9035 14.9187 38.0262 14.588C38.1542 14.2573 38.2182 13.9133 38.2182 13.556C38.2182 13.1987 38.1542 12.8547 38.0262 12.524C37.9035 12.188 37.7142 11.9 37.4582 11.66C37.2075 11.42 36.8849 11.2573 36.4902 11.172C36.3675 11.1453 36.2422 11.1293 36.1142 11.124C35.9862 11.1133 35.8742 11.108 35.7782 11.108H32.5382V16.004ZM43.1154 21.74C42.4648 21.74 41.9181 21.6227 41.4754 21.388C41.0381 21.1533 40.7101 20.8413 40.4914 20.452C40.2728 20.0627 40.1634 19.6387 40.1634 19.18C40.1634 18.7107 40.2568 18.3107 40.4434 17.98C40.6354 17.644 40.8941 17.3693 41.2194 17.156C41.5501 16.9427 41.9314 16.78 42.3634 16.668C42.8008 16.5613 43.2834 16.468 43.8114 16.388C44.3448 16.3027 44.8648 16.2307 45.3714 16.172C45.8834 16.108 46.3314 16.0467 46.7154 15.988L46.2994 16.244C46.3154 15.3907 46.1501 14.7587 45.8034 14.348C45.4568 13.9373 44.8541 13.732 43.9954 13.732C43.4034 13.732 42.9021 13.8653 42.4914 14.132C42.0861 14.3987 41.8008 14.82 41.6354 15.396L40.4914 15.06C40.6888 14.2867 41.0861 13.6867 41.6834 13.26C42.2808 12.8333 43.0568 12.62 44.0114 12.62C44.8008 12.62 45.4701 12.7693 46.0194 13.068C46.5741 13.3613 46.9661 13.788 47.1954 14.348C47.3021 14.5987 47.3714 14.8787 47.4034 15.188C47.4354 15.4973 47.4514 15.812 47.4514 16.132V21.5H46.4034V19.332L46.7074 19.46C46.4141 20.2013 45.9581 20.7667 45.3394 21.156C44.7208 21.5453 43.9794 21.74 43.1154 21.74ZM43.2514 20.724C43.8008 20.724 44.2808 20.6253 44.6914 20.428C45.1021 20.2307 45.4328 19.9613 45.6834 19.62C45.9341 19.2733 46.0968 18.884 46.1714 18.452C46.2354 18.1747 46.2701 17.8707 46.2754 17.54C46.2808 17.204 46.2834 16.9533 46.2834 16.788L46.7314 17.02C46.3314 17.0733 45.8968 17.1267 45.4274 17.18C44.9634 17.2333 44.5048 17.2947 44.0514 17.364C43.6034 17.4333 43.1981 17.516 42.8354 17.612C42.5901 17.6813 42.3528 17.78 42.1234 17.908C41.8941 18.0307 41.7048 18.196 41.5554 18.404C41.4114 18.612 41.3394 18.8707 41.3394 19.18C41.3394 19.4307 41.4008 19.6733 41.5234 19.908C41.6514 20.1427 41.8541 20.3373 42.1314 20.492C42.4141 20.6467 42.7874 20.724 43.2514 20.724ZM49.6941 11.22V9.9H50.8701V11.22H49.6941ZM49.6941 21.5V12.86H50.8701V21.5H49.6941ZM53.2684 21.5V12.86H54.3244V14.94L54.1164 14.668C54.2124 14.412 54.3378 14.1773 54.4924 13.964C54.6471 13.7453 54.8151 13.5667 54.9964 13.428C55.2204 13.2307 55.4818 13.0813 55.7804 12.98C56.0791 12.8733 56.3804 12.812 56.6844 12.796C56.9884 12.7747 57.2658 12.796 57.5164 12.86V13.964C57.2018 13.884 56.8578 13.8653 56.4844 13.908C56.1111 13.9507 55.7671 14.1 55.4524 14.356C55.1644 14.58 54.9484 14.8493 54.8044 15.164C54.6604 15.4733 54.5644 15.804 54.5164 16.156C54.4684 16.5027 54.4444 16.8467 54.4444 17.188V21.5H53.2684ZM61.9456 21.732C60.9322 21.732 60.0976 21.5133 59.4416 21.076C58.7909 20.6387 58.3909 20.0307 58.2416 19.252L59.4416 19.052C59.5696 19.5427 59.8602 19.9347 60.3136 20.228C60.7722 20.516 61.3376 20.66 62.0096 20.66C62.6656 20.66 63.1829 20.524 63.5616 20.252C63.9402 19.9747 64.1296 19.5987 64.1296 19.124C64.1296 18.8573 64.0682 18.6413 63.9456 18.476C63.8282 18.3053 63.5856 18.148 63.2176 18.004C62.8496 17.86 62.3002 17.6893 61.5696 17.492C60.7856 17.2787 60.1722 17.0653 59.7296 16.852C59.2869 16.6387 58.9722 16.3933 58.7856 16.116C58.5989 15.8333 58.5056 15.4893 58.5056 15.084C58.5056 14.5933 58.6442 14.164 58.9216 13.796C59.1989 13.4227 59.5829 13.1347 60.0736 12.932C60.5642 12.724 61.1349 12.62 61.7856 12.62C62.4362 12.62 63.0176 12.7267 63.5296 12.94C64.0469 13.148 64.4629 13.4413 64.7776 13.82C65.0922 14.1987 65.2789 14.6387 65.3376 15.14L64.1376 15.356C64.0576 14.8493 63.8042 14.4493 63.3776 14.156C62.9562 13.8573 62.4202 13.7027 61.7696 13.692C61.1562 13.676 60.6576 13.7933 60.2736 14.044C59.8896 14.2893 59.6976 14.6173 59.6976 15.028C59.6976 15.2573 59.7669 15.4547 59.9056 15.62C60.0442 15.78 60.2949 15.932 60.6576 16.076C61.0256 16.22 61.5482 16.3773 62.2256 16.548C63.0202 16.7507 63.6442 16.964 64.0976 17.188C64.5509 17.412 64.8736 17.676 65.0656 17.98C65.2576 18.284 65.3536 18.66 65.3536 19.108C65.3536 19.924 65.0496 20.5667 64.4416 21.036C63.8389 21.5 63.0069 21.732 61.9456 21.732ZM67.7678 20.22V18.852H69.1358V20.22H67.7678ZM67.7758 15.508V14.14H69.1438V15.508H67.7758Z" fill="white"/>
</svg>
